<svg width="32" height="32" viewBox="0 0 32 32" fill="none" xmlns="http://www.w3.org/2000/svg">
<circle cx="16" cy="16" r="16" fill="#3FC1C9"/>
<path d="M19.3664 9.09733C19.5787 9.30962 19.6979 9.59752 19.6979 9.8977C19.6979 10.1979 19.5787 10.4858 19.3664 10.6981L13.7626 16.3019L19.3664 21.9056C19.5726 22.1191 19.6867 22.4051 19.6842 22.7019C19.6816 22.9988 19.5625 23.2827 19.3526 23.4926C19.1427 23.7025 18.8588 23.8215 18.562 23.8241C18.2651 23.8267 17.9792 23.7126 17.7657 23.5064L11.3615 17.1022C11.1493 16.8899 11.0301 16.602 11.0301 16.3019C11.0301 16.0017 11.1493 15.7138 11.3615 15.5015L17.7657 9.09733C17.978 8.88509 18.2659 8.76587 18.566 8.76587C18.8662 8.76587 19.1541 8.88509 19.3664 9.09733V9.09733Z" fill="white"/>
</svg>
